<mxfile host="app.diagrams.net" modified="2023-04-14T01:59:11.420Z" agent="Mozilla/5.0 (Windows NT 10.0; Win64; x64) AppleWebKit/537.36 (KHTML, like Gecko) Chrome/112.0.0.0 Safari/537.36 Edg/112.0.1722.39" etag="u2uVOo1fZN89WrqNm3K1" version="21.1.7" type="github">
  <diagram name="第 1 页" id="smPvJsBbJQpns9LwSMZ-">
    <mxGraphModel dx="2017" dy="1124" grid="1" gridSize="10" guides="1" tooltips="1" connect="1" arrows="1" fold="1" page="1" pageScale="1" pageWidth="827" pageHeight="1169" math="0" shadow="0">
      <root>
        <mxCell id="0" />
        <mxCell id="1" parent="0" />
        <mxCell id="Z1ZvzYNeSh9PK195ItK9-7" value="" style="edgeStyle=orthogonalEdgeStyle;rounded=0;orthogonalLoop=1;jettySize=auto;html=1;fontSize=16;" edge="1" parent="1" source="Z1ZvzYNeSh9PK195ItK9-1" target="Z1ZvzYNeSh9PK195ItK9-3">
          <mxGeometry relative="1" as="geometry" />
        </mxCell>
        <mxCell id="Z1ZvzYNeSh9PK195ItK9-1" value="开始" style="strokeWidth=2;html=1;shape=mxgraph.flowchart.terminator;whiteSpace=wrap;fontSize=16;" vertex="1" parent="1">
          <mxGeometry x="350" y="100" width="100" height="60" as="geometry" />
        </mxCell>
        <mxCell id="Z1ZvzYNeSh9PK195ItK9-2" value="结束" style="strokeWidth=2;html=1;shape=mxgraph.flowchart.terminator;whiteSpace=wrap;fontSize=16;" vertex="1" parent="1">
          <mxGeometry x="350" y="780" width="100" height="60" as="geometry" />
        </mxCell>
        <mxCell id="Z1ZvzYNeSh9PK195ItK9-15" value="" style="edgeStyle=orthogonalEdgeStyle;rounded=0;orthogonalLoop=1;jettySize=auto;html=1;" edge="1" parent="1" source="Z1ZvzYNeSh9PK195ItK9-3" target="Z1ZvzYNeSh9PK195ItK9-14">
          <mxGeometry relative="1" as="geometry" />
        </mxCell>
        <mxCell id="Z1ZvzYNeSh9PK195ItK9-3" value="边缘检测" style="rounded=1;whiteSpace=wrap;html=1;fontSize=16;" vertex="1" parent="1">
          <mxGeometry x="340" y="200" width="120" height="60" as="geometry" />
        </mxCell>
        <mxCell id="Z1ZvzYNeSh9PK195ItK9-9" style="edgeStyle=orthogonalEdgeStyle;rounded=0;orthogonalLoop=1;jettySize=auto;html=1;entryX=0.5;entryY=0;entryDx=0;entryDy=0;fontSize=16;" edge="1" parent="1" source="Z1ZvzYNeSh9PK195ItK9-4" target="Z1ZvzYNeSh9PK195ItK9-5">
          <mxGeometry relative="1" as="geometry">
            <Array as="points">
              <mxPoint x="260" y="480" />
              <mxPoint x="260" y="540" />
              <mxPoint x="400" y="540" />
            </Array>
          </mxGeometry>
        </mxCell>
        <mxCell id="Z1ZvzYNeSh9PK195ItK9-13" style="edgeStyle=orthogonalEdgeStyle;rounded=0;orthogonalLoop=1;jettySize=auto;html=1;entryX=0.5;entryY=0;entryDx=0;entryDy=0;fontSize=16;" edge="1" parent="1" source="Z1ZvzYNeSh9PK195ItK9-4" target="Z1ZvzYNeSh9PK195ItK9-6">
          <mxGeometry relative="1" as="geometry">
            <mxPoint x="400" y="680" as="targetPoint" />
            <Array as="points">
              <mxPoint x="540" y="480" />
              <mxPoint x="540" y="660" />
              <mxPoint x="400" y="660" />
            </Array>
          </mxGeometry>
        </mxCell>
        <mxCell id="Z1ZvzYNeSh9PK195ItK9-4" value="判断页面是否存在图画" style="rhombus;whiteSpace=wrap;html=1;fontSize=16;" vertex="1" parent="1">
          <mxGeometry x="295" y="440" width="210" height="80" as="geometry" />
        </mxCell>
        <mxCell id="Z1ZvzYNeSh9PK195ItK9-11" value="" style="edgeStyle=orthogonalEdgeStyle;rounded=0;orthogonalLoop=1;jettySize=auto;html=1;fontSize=16;" edge="1" parent="1" source="Z1ZvzYNeSh9PK195ItK9-5" target="Z1ZvzYNeSh9PK195ItK9-6">
          <mxGeometry relative="1" as="geometry">
            <Array as="points">
              <mxPoint x="400" y="690" />
              <mxPoint x="400" y="690" />
            </Array>
          </mxGeometry>
        </mxCell>
        <mxCell id="Z1ZvzYNeSh9PK195ItK9-5" value="图像分割" style="rounded=1;whiteSpace=wrap;html=1;fontSize=16;" vertex="1" parent="1">
          <mxGeometry x="340" y="580" width="120" height="60" as="geometry" />
        </mxCell>
        <mxCell id="Z1ZvzYNeSh9PK195ItK9-12" value="" style="edgeStyle=orthogonalEdgeStyle;rounded=0;orthogonalLoop=1;jettySize=auto;html=1;fontSize=16;" edge="1" parent="1" source="Z1ZvzYNeSh9PK195ItK9-6" target="Z1ZvzYNeSh9PK195ItK9-2">
          <mxGeometry relative="1" as="geometry" />
        </mxCell>
        <mxCell id="Z1ZvzYNeSh9PK195ItK9-6" value="连通区域分析" style="rounded=1;whiteSpace=wrap;html=1;fontSize=16;" vertex="1" parent="1">
          <mxGeometry x="340" y="684.5" width="120" height="60" as="geometry" />
        </mxCell>
        <mxCell id="Z1ZvzYNeSh9PK195ItK9-16" style="edgeStyle=orthogonalEdgeStyle;rounded=0;orthogonalLoop=1;jettySize=auto;html=1;entryX=0.5;entryY=0;entryDx=0;entryDy=0;" edge="1" parent="1" source="Z1ZvzYNeSh9PK195ItK9-14" target="Z1ZvzYNeSh9PK195ItK9-4">
          <mxGeometry relative="1" as="geometry">
            <Array as="points">
              <mxPoint x="240" y="340" />
              <mxPoint x="240" y="400" />
              <mxPoint x="400" y="400" />
            </Array>
          </mxGeometry>
        </mxCell>
        <mxCell id="Z1ZvzYNeSh9PK195ItK9-17" style="edgeStyle=orthogonalEdgeStyle;rounded=0;orthogonalLoop=1;jettySize=auto;html=1;entryX=0.5;entryY=0;entryDx=0;entryDy=0;" edge="1" parent="1" source="Z1ZvzYNeSh9PK195ItK9-14" target="Z1ZvzYNeSh9PK195ItK9-3">
          <mxGeometry relative="1" as="geometry">
            <mxPoint x="400" y="190" as="targetPoint" />
            <Array as="points">
              <mxPoint x="560" y="340" />
              <mxPoint x="560" y="180" />
              <mxPoint x="400" y="180" />
            </Array>
          </mxGeometry>
        </mxCell>
        <mxCell id="Z1ZvzYNeSh9PK195ItK9-14" value="判断是否扫描到完整页面" style="rhombus;whiteSpace=wrap;html=1;fontSize=16;" vertex="1" parent="1">
          <mxGeometry x="280" y="300" width="240" height="80" as="geometry" />
        </mxCell>
        <mxCell id="Z1ZvzYNeSh9PK195ItK9-18" value="Yes" style="text;html=1;align=center;verticalAlign=middle;resizable=0;points=[];autosize=1;strokeColor=none;fillColor=none;fontSize=14;" vertex="1" parent="1">
          <mxGeometry x="235" y="315" width="50" height="30" as="geometry" />
        </mxCell>
        <mxCell id="Z1ZvzYNeSh9PK195ItK9-19" value="No" style="text;html=1;align=center;verticalAlign=middle;resizable=0;points=[];autosize=1;strokeColor=none;fillColor=none;fontSize=14;" vertex="1" parent="1">
          <mxGeometry x="520" y="305" width="40" height="30" as="geometry" />
        </mxCell>
        <mxCell id="Z1ZvzYNeSh9PK195ItK9-20" value="Yes" style="text;html=1;align=center;verticalAlign=middle;resizable=0;points=[];autosize=1;strokeColor=none;fillColor=none;fontSize=14;" vertex="1" parent="1">
          <mxGeometry x="255" y="445" width="50" height="30" as="geometry" />
        </mxCell>
        <mxCell id="Z1ZvzYNeSh9PK195ItK9-21" value="No" style="text;html=1;align=center;verticalAlign=middle;resizable=0;points=[];autosize=1;strokeColor=none;fillColor=none;fontSize=14;" vertex="1" parent="1">
          <mxGeometry x="510" y="445" width="40" height="30" as="geometry" />
        </mxCell>
      </root>
    </mxGraphModel>
  </diagram>
</mxfile>
